<?xml version="1.0" standalone="no"?>
<!DOCTYPE svg PUBLIC "-//W3C//DTD SVG 20010904//EN"
 "http://www.w3.org/TR/2001/REC-SVG-20010904/DTD/svg10.dtd">
<svg version="1.0" xmlns="http://www.w3.org/2000/svg"
 width="2000.000000pt" height="2000.000000pt" viewBox="0 0 2000.000000 2000.000000"
 preserveAspectRatio="xMidYMid meet">

<g transform="translate(0.000000,2000.000000) scale(0.100000,-0.100000)"
fill="#000000" stroke="none">
<path d="M8550 13651 c-47 -25 -83 -93 -77 -146 3 -29 57 -131 202 -380 109
-187 285 -491 393 -675 107 -184 225 -387 262 -450 37 -63 72 -125 79 -137 10
-20 3 -38 -61 -150 -39 -70 -76 -134 -83 -141 -8 -9 -36 31 -117 170 -352 606
-614 1057 -711 1223 -229 396 -236 405 -326 405 -87 0 -151 -64 -151 -151 0
-50 2 -53 352 -654 381 -654 578 -994 669 -1151 l100 -171 -162 -284 c-290
-510 -653 -1147 -859 -1509 -184 -321 -203 -360 -207 -410 -4 -46 -1 -61 19
-90 45 -67 140 -90 205 -50 41 25 43 27 286 455 306 540 441 777 642 1130 100
176 267 469 370 650 103 182 270 474 370 650 100 176 247 435 327 575 80 140
248 435 373 655 125 220 237 419 247 443 25 56 17 111 -23 157 -37 42 -79 59
-132 53 -65 -8 -92 -31 -151 -132 -108 -185 -766 -1344 -772 -1360 -3 -9 -9
-16 -13 -16 -6 0 -157 256 -672 1144 -163 282 -191 324 -225 343 -48 28 -107
29 -154 4z"/>
<path d="M10989 13347 c-44 -29 -37 -17 -406 -667 -306 -538 -727 -1278 -1308
-2300 -155 -272 -331 -580 -390 -685 -59 -104 -163 -287 -231 -407 -115 -200
-124 -220 -124 -268 0 -89 47 -141 135 -148 55 -4 96 10 127 44 9 11 125 210
258 444 133 234 312 548 398 698 124 218 158 270 167 260 11 -11 296 -499 682
-1167 146 -253 155 -267 195 -287 42 -22 125 -15 166 14 38 28 67 98 58 145
-3 18 -66 136 -139 262 -73 127 -280 483 -460 792 -180 309 -327 567 -327 573
0 10 144 268 158 282 4 4 68 -100 144 -230 75 -130 192 -334 260 -452 69 -118
270 -467 448 -775 177 -308 330 -568 339 -579 25 -29 67 -46 111 -46 89 0 154
63 154 149 0 38 -9 64 -45 127 -72 126 -459 796 -480 830 l-19 31 103 38 c493
182 876 555 1067 1040 44 112 96 320 110 447 19 162 8 431 -24 584 -101 480
-370 876 -781 1147 -193 127 -275 152 -346 104z m293 -447 c471 -379 669
-1007 503 -1591 -133 -467 -499 -850 -957 -1004 -58 -19 -112 -35 -119 -35 -8
0 -41 49 -74 107 -68 122 -72 133 -52 133 35 0 199 55 283 94 182 86 346 221
468 383 362 483 318 1169 -103 1602 -42 43 -111 104 -154 136 -43 32 -76 61
-75 64 2 4 30 55 63 113 l60 106 37 -20 c21 -12 75 -51 120 -88z m-297 -505
c125 -122 201 -246 252 -412 24 -79 27 -104 27 -248 1 -126 -3 -175 -18 -228
-49 -182 -117 -300 -250 -433 -141 -141 -284 -221 -466 -259 -141 -30 -120
-45 -261 198 -67 116 -127 219 -132 227 -7 12 52 123 230 435 132 231 293 513
357 627 l118 208 31 -18 c17 -9 67 -53 112 -97z"/>
<path d="M7170 7462 l0 -462 85 0 85 0 2 191 3 191 134 -186 c74 -102 138
-183 142 -181 4 3 69 93 145 202 l139 196 3 -206 2 -207 90 0 90 0 0 461 c0
368 -3 459 -12 451 -7 -6 -112 -148 -233 -316 -121 -168 -222 -306 -225 -306
-3 0 -17 17 -31 38 -14 20 -68 98 -121 172 -52 74 -141 200 -196 279 l-102
144 0 -461z"/>
<path d="M9350 7460 l0 -460 90 0 90 0 0 255 c0 148 4 255 9 255 5 0 11 -3 13
-7 3 -9 136 -130 309 -284 58 -52 147 -132 198 -178 l91 -83 0 466 0 466 -85
0 -85 0 0 -266 0 -266 -37 32 c-48 41 -473 430 -533 487 -25 24 -48 43 -52 43
-5 0 -8 -207 -8 -460z"/>
<path d="M13366 7667 c-60 -138 -149 -343 -198 -454 -48 -112 -88 -205 -88
-208 0 -3 39 -4 86 -3 l85 3 36 83 35 82 148 0 147 0 33 -85 33 -85 103 0 103
0 -20 48 c-12 26 -36 81 -54 122 -17 41 -73 170 -123 285 -50 116 -115 266
-145 334 -30 69 -58 126 -63 128 -5 2 -58 -111 -118 -250z m111 -345 c-44 -2
-81 -1 -84 1 -2 3 10 40 28 83 17 44 36 90 41 104 9 23 13 16 52 -80 l42 -105
-79 -3z"/>
<path d="M14020 7462 l0 -462 85 0 85 0 0 191 c0 152 3 189 13 181 6 -6 68
-90 137 -186 69 -96 127 -175 130 -175 5 -1 19 19 185 254 l105 149 0 -207 0
-207 90 0 90 0 0 460 c0 253 -2 460 -4 460 -2 0 -106 -142 -231 -316 -185
-256 -230 -313 -241 -302 -6 7 -105 146 -219 308 -114 162 -211 299 -216 305
-5 5 -9 -184 -9 -453z"/>
<path d="M8623 7890 c-119 -24 -263 -138 -316 -252 -108 -229 -11 -497 221
-610 64 -32 72 -33 187 -33 110 0 125 2 179 27 180 85 276 231 276 421 0 289
-262 503 -547 447z m177 -176 c72 -21 150 -98 175 -173 34 -104 9 -227 -63
-305 -72 -77 -211 -99 -310 -50 -229 114 -198 460 48 535 41 12 93 10 150 -7z"/>
<path d="M10671 7884 c-81 -22 -144 -60 -210 -128 -65 -69 -94 -119 -116 -203
-54 -207 47 -424 243 -520 75 -38 77 -38 197 -38 120 0 122 0 196 37 98 48
169 119 217 217 36 73 37 77 37 191 0 114 -1 117 -38 194 -101 203 -317 306
-526 250z m199 -170 c75 -22 149 -98 174 -178 60 -192 -64 -376 -254 -376
-224 0 -355 259 -226 447 69 101 187 143 306 107z"/>
<path d="M11703 7886 c-158 -40 -265 -141 -314 -296 -30 -93 -29 -244 0 -321
32 -83 73 -140 136 -187 85 -62 151 -84 277 -90 96 -4 116 -2 190 22 46 14 98
35 116 46 l32 20 0 190 0 190 -165 0 -165 0 0 -85 0 -85 75 0 75 0 0 -55 c0
-51 -2 -55 -27 -62 -16 -5 -62 -8 -103 -7 -173 2 -280 105 -280 270 0 127 45
209 139 253 49 23 69 26 151 25 73 0 108 -5 149 -22 30 -12 56 -21 57 -19 1 1
14 37 30 80 31 91 34 86 -66 118 -83 26 -236 34 -307 15z"/>
<path d="M4990 7886 c0 -3 61 -98 135 -211 74 -113 135 -211 135 -217 0 -9
-107 -183 -268 -435 l-14 -23 109 0 109 0 69 123 c38 67 77 135 86 150 l16 28
98 -150 98 -151 114 0 c105 0 113 1 104 18 -6 9 -71 109 -144 222 l-135 205
36 55 c19 30 81 128 138 217 57 89 104 164 104 167 0 3 -47 6 -104 6 l-104 0
-82 -145 c-45 -80 -85 -143 -89 -141 -4 3 -47 68 -96 145 l-90 140 -112 1
c-62 0 -113 -2 -113 -4z"/>
<path d="M5940 7446 l0 -446 90 0 90 0 0 140 0 140 58 0 57 0 90 -140 90 -140
103 0 c56 0 102 2 102 4 0 3 -44 74 -99 158 l-99 153 43 40 c82 75 115 212 80
331 -13 47 -27 69 -69 110 -79 77 -114 86 -343 92 l-193 4 0 -446z m393 246
c30 -29 50 -94 41 -135 -17 -79 -64 -107 -179 -107 l-75 0 0 136 0 136 95 -4
c81 -3 98 -7 118 -26z"/>
<path d="M12340 7445 l0 -445 90 0 90 0 0 140 0 140 59 0 58 0 93 -140 93
-140 103 0 103 0 -99 155 c-55 85 -100 156 -100 158 0 2 22 26 49 54 59 61 81
123 81 224 0 115 -42 196 -126 245 -72 42 -141 54 -326 54 l-168 0 0 -445z
m387 255 c27 -18 53 -78 53 -124 0 -39 -35 -95 -70 -113 -14 -7 -62 -13 -107
-13 l-83 0 0 136 0 136 93 -4 c56 -2 101 -10 114 -18z"/>
<path d="M5977 6408 c-47 -117 -93 -230 -102 -251 -15 -36 -15 -38 1 -35 10 2
29 33 48 80 l31 78 106 0 107 0 32 -80 c20 -50 38 -80 47 -80 10 0 14 6 11 18
-6 18 -189 475 -193 480 -1 1 -41 -93 -88 -210z m136 15 l45 -113 -94 0 c-52
0 -94 1 -94 3 0 2 16 43 36 93 20 49 40 100 45 113 5 13 11 22 13 20 2 -2 24
-55 49 -116z"/>
<path d="M5370 6585 c0 -12 14 -15 70 -15 l70 0 0 -225 c0 -192 2 -225 15
-225 12 0 15 34 17 223 l3 222 73 3 c55 2 72 6 72 17 0 13 -27 15 -160 15
-136 0 -160 -2 -160 -15z"/>
<path d="M6599 6577 c-172 -91 -169 -359 5 -438 52 -24 161 -25 216 -3 l40 16
0 94 0 94 -70 0 c-56 0 -70 -3 -70 -15 0 -12 13 -15 55 -15 l55 0 0 -69 0 -69
-36 -12 c-59 -20 -155 -9 -204 24 -99 66 -118 220 -38 312 50 57 100 77 177
71 36 -3 76 -8 89 -12 37 -12 27 19 -11 33 -57 21 -158 15 -208 -11z"/>
<path d="M7140 6360 l0 -240 145 0 c122 0 145 2 145 15 0 13 -21 15 -130 15
l-130 0 0 225 c0 193 -2 225 -15 225 -13 0 -15 -33 -15 -240z"/>
<path d="M7680 6360 c0 -207 2 -240 15 -240 13 0 15 33 15 240 0 207 -2 240
-15 240 -13 0 -15 -33 -15 -240z"/>
<path d="M8000 6360 c0 -207 2 -240 15 -240 13 0 15 29 15 203 l0 202 43 -45
c44 -48 91 -100 197 -220 36 -41 80 -90 97 -110 l32 -35 1 243 c0 207 -2 242
-15 242 -12 0 -15 -31 -17 -201 l-3 -201 -175 200 c-96 110 -178 201 -182 201
-5 1 -8 -107 -8 -239z"/>
<path d="M8690 6360 l0 -240 155 0 c131 0 155 2 155 15 0 13 -22 15 -140 15
l-141 0 3 98 3 97 118 3 c95 2 117 5 117 17 0 12 -21 15 -120 15 l-120 0 0 95
0 95 135 0 c113 0 135 2 135 15 0 13 -23 15 -150 15 l-150 0 0 -240z"/>
<path d="M9715 6581 c-86 -40 -138 -125 -137 -226 0 -104 42 -172 129 -212 46
-21 66 -24 126 -21 40 2 86 10 102 19 l30 14 0 90 0 90 -67 3 c-56 2 -68 0
-68 -13 0 -11 12 -15 50 -15 l50 0 0 -70 c0 -66 -1 -71 -26 -80 -43 -17 -141
-12 -182 9 -74 38 -112 102 -112 189 0 119 77 203 193 210 42 3 75 -1 99 -11
32 -13 37 -14 42 -1 16 41 -155 59 -229 25z"/>
<path d="M10338 6572 c-83 -49 -128 -127 -128 -221 1 -130 106 -231 243 -231
219 0 327 253 174 410 -73 75 -201 94 -289 42z m207 -20 c162 -79 159 -304 -4
-387 -25 -13 -52 -16 -102 -13 -58 3 -74 8 -106 34 -83 67 -109 146 -79 240
38 121 178 182 291 126z"/>
<path d="M10960 6360 l0 -240 150 0 c127 0 150 2 150 15 0 13 -22 15 -135 15
l-136 0 3 98 3 97 118 3 c95 2 117 5 117 17 0 12 -21 15 -120 15 l-120 0 0 95
0 95 130 0 c109 0 130 2 130 15 0 13 -23 15 -145 15 l-145 0 0 -240z"/>
<path d="M11573 6580 c-39 -24 -53 -48 -53 -95 0 -49 37 -84 119 -116 35 -13
77 -36 92 -51 61 -55 23 -157 -64 -173 -36 -7 -131 17 -143 36 -3 5 -10 7 -15
4 -36 -23 51 -64 136 -65 97 0 144 43 145 131 0 63 -27 94 -119 136 -90 41
-121 67 -121 103 0 75 96 106 203 65 11 -5 17 -2 17 7 0 37 -145 50 -197 18z"/>
<path d="M12400 6360 c0 -204 2 -240 15 -240 12 0 15 22 17 113 l3 112 143 3
142 3 0 -116 c0 -96 3 -115 15 -115 13 0 15 33 15 240 0 207 -2 240 -15 240
-12 0 -15 -19 -15 -110 l0 -110 -145 0 -145 0 0 110 c0 91 -3 110 -15 110 -13
0 -15 -33 -15 -240z"/>
<path d="M13040 6360 l0 -240 155 0 c130 0 155 2 155 15 0 12 -24 15 -137 17
l-138 3 0 95 0 95 118 3 c95 2 117 5 117 17 0 12 -21 15 -120 15 l-121 0 3 93
3 92 133 3 c108 2 132 5 132 17 0 13 -25 15 -150 15 l-150 0 0 -240z"/>
<path d="M13610 6360 c0 -207 2 -240 15 -240 12 0 15 18 15 100 l0 100 59 0
59 0 58 -96 c53 -88 77 -115 90 -101 3 2 -23 50 -56 106 l-62 102 27 21 c52
41 68 113 39 174 -23 49 -82 74 -172 74 l-72 0 0 -240z m176 191 c46 -28 61
-73 43 -125 -18 -51 -62 -76 -136 -76 l-53 0 0 110 0 110 58 0 c38 0 67 -6 88
-19z"/>
<path d="M14180 6360 l0 -240 150 0 c127 0 150 2 150 15 0 13 -22 15 -135 15
l-135 0 0 100 0 100 115 0 c96 0 115 3 115 15 0 12 -19 15 -115 15 l-115 0 0
95 0 95 130 0 c109 0 130 2 130 15 0 13 -23 15 -145 15 l-145 0 0 -240z"/>
</g>
</svg>
