<?xml version="1.0" standalone="no"?>
<!DOCTYPE svg PUBLIC "-//W3C//DTD SVG 20010904//EN"
 "http://www.w3.org/TR/2001/REC-SVG-20010904/DTD/svg10.dtd">
<svg version="1.0" xmlns="http://www.w3.org/2000/svg"
 width="29px" height="40px" viewBox="0 0 4000 4000"
 preserveAspectRatio="xMidYMid meet">

<g transform="translate(0.000000,4000.000000) scale(0.100000,-0.100000)"
fill="#000000" stroke="none">
<path d="M0 20000 l0 -20000 20000 0 20000 0 0 20000 0 20000 -20000 0 -20000
0 0 -20000z m39990 0 l0 -19990 -19990 0 -19990 0 0 19990 0 19990 19990 0
19990 0 0 -19990z"/>
<path d="M27846 31810 c-49 -434 -375 -830 -1037 -1263 -330 -215 -665 -400
-1509 -832 -940 -481 -1323 -692 -1785 -978 -1042 -648 -1767 -1327 -2220
-2081 -324 -540 -512 -1111 -581 -1766 -19 -176 -24 -573 -11 -832 8 -161 8
-167 -12 -187 -21 -21 -25 -21 -680 -21 -627 0 -660 1 -682 19 -22 17 -22 23
-18 132 2 63 4 269 3 459 0 266 -4 378 -18 490 -85 699 -300 1294 -670 1855
-419 635 -1012 1198 -1846 1750 -538 356 -936 580 -2055 1155 -972 499 -1327
699 -1665 936 -320 224 -575 467 -707 673 -95 148 -183 384 -183 492 0 73 -17
39 -49 -98 -310 -1337 -259 -2719 155 -4150 229 -795 608 -1666 1019 -2344 31
-50 78 -135 105 -189 298 -594 778 -1119 1405 -1537 385 -257 686 -412 1495
-768 662 -291 985 -454 1242 -627 373 -250 623 -557 737 -906 53 -163 73 -287
78 -502 4 -152 -30 -2094 -40 -2288 l-2 -44 -94 147 c-429 672 -969 1261
-1630 1779 -182 142 -429 320 -834 600 -562 387 -779 551 -1022 773 -543 495
-892 1094 -1088 1868 -67 263 -129 609 -152 845 -4 36 -8 76 -10 89 -2 13 -7
72 -11 132 -4 60 -11 112 -15 115 -5 3 -9 -10 -9 -28 0 -139 -119 -577 -230
-847 -172 -419 -391 -753 -692 -1055 -76 -76 -141 -148 -144 -160 -7 -28 871
-3275 902 -3337 13 -26 37 -58 55 -73 17 -15 136 -78 263 -141 1500 -737 3008
-1845 4306 -3161 597 -606 1117 -1233 1305 -1574 93 -169 110 -194 141 -212
29 -17 72 -18 647 -18 363 0 625 4 640 9 38 15 65 48 112 141 245 486 1104
1464 2005 2285 1134 1033 2313 1854 3590 2500 168 85 314 162 326 172 32 28
60 73 77 128 9 28 204 743 432 1590 229 847 423 1562 431 1589 30 103 30 103
-130 265 -175 178 -258 280 -388 476 -113 170 -272 482 -341 670 -88 240 -152
481 -186 700 l-17 110 -8 -95 c-81 -1045 -345 -1863 -795 -2463 -164 -219
-412 -479 -636 -666 -149 -124 -450 -348 -710 -526 -879 -606 -1137 -804
-1550 -1191 -394 -370 -847 -928 -1119 -1379 l-34 -57 -6 184 c-4 101 -16 628
-27 1172 -16 760 -18 1013 -9 1098 50 504 261 872 687 1195 285 218 571 367
1413 737 646 285 995 460 1319 663 524 328 932 705 1256 1158 95 134 179 272
275 454 48 91 112 207 142 257 255 418 549 1034 751 1574 297 792 475 1554
558 2390 26 262 37 916 20 1190 -29 456 -108 983 -204 1355 l-24 90 -7 -65z"/>
<path d="M9030 12640 c-36 -5 -108 -19 -160 -31 -408 -93 -735 -347 -918 -715
-215 -431 -215 -1000 0 -1429 129 -255 347 -467 601 -584 348 -162 822 -191
1206 -75 180 54 450 210 550 318 l25 26 -175 178 c-96 97 -176 178 -179 179
-3 2 -37 -23 -77 -55 -215 -172 -504 -249 -792 -212 -407 53 -673 290 -773
687 -19 74 -22 116 -23 258 0 146 4 182 23 258 87 331 294 560 592 655 120 38
182 47 340 46 128 0 170 -4 245 -23 118 -30 272 -104 363 -175 l73 -57 175
168 175 168 -63 58 c-126 116 -310 225 -483 287 -168 59 -241 71 -460 75 -110
2 -229 0 -265 -5z"/>
<path d="M12385 12644 c-116 -17 -214 -40 -304 -70 -468 -156 -787 -535 -902
-1074 -20 -90 -23 -135 -23 -315 0 -226 10 -307 60 -479 103 -358 341 -653
654 -811 302 -152 704 -200 1068 -125 484 98 846 424 1002 900 63 193 74 272
74 525 0 200 -2 243 -22 328 -65 292 -182 521 -361 709 -189 200 -404 319
-686 384 -107 24 -143 28 -325 30 -113 1 -218 0 -235 -2z m421 -493 c330 -68
568 -305 661 -660 34 -128 43 -371 20 -506 -56 -317 -215 -549 -462 -671 -148
-73 -219 -87 -430 -88 -193 -1 -251 9 -387 60 -180 68 -343 225 -432 415 -107
227 -136 536 -72 784 30 119 104 272 177 368 116 153 320 272 526 307 94 15
302 11 399 -9z"/>
<path d="M19160 11200 l0 -1400 260 0 260 0 0 410 0 410 423 0 c436 0 549 7
677 40 383 98 646 391 710 792 18 108 8 311 -19 414 -43 168 -119 308 -230
426 -129 137 -274 223 -469 276 l-97 26 -757 4 -758 3 0 -1401z m1435 885 c99
-21 171 -60 241 -129 103 -104 152 -240 141 -394 -15 -197 -126 -352 -306
-424 -55 -23 -64 -23 -523 -26 l-468 -3 0 496 0 495 423 0 c334 0 437 -3 492
-15z"/>
<path d="M23353 12347 c-62 -138 -344 -768 -626 -1399 l-514 -1148 286 0 286
0 109 243 c60 133 115 252 123 265 l13 22 728 0 728 0 118 -265 119 -265 288
0 287 0 -142 318 c-78 174 -360 804 -627 1399 l-484 1083 -290 0 -290 0 -112
-253z m666 -939 c138 -318 251 -580 251 -583 0 -3 -232 -5 -515 -5 -283 0
-515 2 -515 4 0 3 108 253 241 558 132 304 247 568 255 587 9 21 18 31 23 25
5 -5 122 -269 260 -586z"/>
<path d="M26220 11200 l0 -1400 265 0 265 0 2 939 3 939 730 -938 730 -939
168 -1 167 0 0 1400 0 1400 -265 0 -265 0 -2 -865 -3 -866 -683 866 -683 865
-214 0 -215 0 0 -1400z"/>
<path d="M29510 12590 c0 -6 243 -377 540 -825 l540 -815 0 -575 0 -575 265 0
265 0 0 581 0 581 552 802 c303 440 553 809 556 819 4 16 -16 17 -316 17
l-319 0 -369 -575 c-203 -316 -371 -575 -374 -574 -3 0 -163 257 -355 572
l-351 572 -317 3 c-218 1 -317 -1 -317 -8z"/>
<path d="M15060 11195 l0 -1395 260 0 260 0 0 1011 c0 808 3 1009 13 1001 6
-6 208 -278 447 -606 l435 -595 51 -1 52 0 456 606 456 606 0 -1011 0 -1011
265 0 265 0 0 1395 0 1395 -304 0 -304 0 -432 -592 c-237 -326 -434 -594 -438
-596 -4 -1 -202 266 -441 593 l-433 595 -304 0 -304 0 0 -1395z"/>
<path d="M16610 9124 c-128 -34 -201 -114 -208 -229 -5 -79 9 -123 55 -170 49
-50 113 -78 279 -121 76 -20 155 -44 175 -55 42 -21 76 -60 86 -97 16 -64 -45
-146 -126 -171 -54 -16 -181 -14 -232 4 -85 30 -142 91 -154 167 -5 29 -11 38
-22 34 -8 -3 -35 -6 -60 -6 l-46 0 6 -45 c8 -55 37 -119 77 -167 92 -111 346
-149 510 -77 177 78 225 297 91 422 -54 50 -117 77 -268 113 -206 48 -253 78
-253 162 0 105 138 166 300 131 64 -14 122 -66 140 -126 l13 -43 59 0 c55 0
58 1 58 25 0 45 -39 130 -77 167 -92 88 -256 121 -403 82z"/>
<path d="M18161 9124 c-79 -21 -145 -60 -202 -121 -175 -185 -170 -543 10
-723 212 -211 604 -146 724 120 34 77 47 141 47 245 0 110 -15 179 -56 264
-87 176 -316 271 -523 215z m223 -108 c146 -44 226 -175 226 -371 0 -149 -44
-256 -132 -322 -60 -44 -98 -56 -188 -57 -74 -1 -92 3 -142 27 -70 34 -130
100 -160 176 -30 76 -32 258 -4 341 38 110 107 177 216 211 42 12 134 10 184
-5z"/>
<path d="M24620 9124 c-150 -40 -262 -158 -304 -321 -21 -81 -21 -243 0 -314
70 -236 271 -366 510 -329 193 29 327 160 370 358 60 285 -76 543 -321 607
-73 19 -182 18 -255 -1z m276 -127 c53 -27 112 -85 139 -137 22 -43 45 -153
45 -220 0 -73 -25 -175 -55 -226 -31 -52 -86 -101 -144 -128 -67 -30 -198 -29
-263 3 -65 32 -120 87 -154 157 -28 57 -29 65 -29 199 0 132 2 143 28 200 61
129 160 188 307 182 56 -3 88 -10 126 -30z"/>
<path d="M26258 9124 c-201 -48 -320 -205 -335 -441 -20 -322 171 -528 487
-526 116 0 226 33 322 97 l63 41 3 183 2 182 -200 0 -200 0 0 -60 0 -60 140 0
140 0 0 -83 c0 -98 -7 -108 -105 -154 -55 -25 -70 -28 -175 -28 -102 0 -121 3
-165 25 -114 56 -173 157 -182 310 -15 250 101 406 312 418 143 8 233 -36 281
-135 15 -32 29 -60 30 -62 2 -2 26 3 53 10 60 15 62 24 27 102 -27 62 -79 118
-136 147 -96 49 -244 63 -362 34z"/>
<path d="M27865 9126 c-145 -36 -255 -138 -306 -281 -27 -77 -37 -249 -19
-326 46 -199 181 -328 376 -360 141 -23 304 31 398 131 138 147 167 419 67
618 -32 64 -116 149 -179 181 -95 49 -230 63 -337 37z m224 -112 c40 -12 68
-30 111 -72 71 -70 100 -140 107 -259 13 -189 -52 -325 -185 -390 -77 -38
-190 -39 -270 -4 -76 34 -146 114 -172 198 -38 123 -22 302 36 401 67 115 229
169 373 126z"/>
<path d="M11926 9088 c-8 -18 -89 -228 -180 -467 -92 -239 -169 -438 -172
-443 -3 -4 26 -8 64 -8 l69 0 33 93 c18 50 42 116 52 145 l20 52 201 -2 201
-3 54 -142 54 -143 69 0 c38 0 69 4 69 8 0 5 -85 217 -189 473 l-190 464 -71
3 -71 3 -13 -33z m169 -317 c41 -112 75 -205 75 -207 0 -2 -72 -4 -160 -4 -88
0 -160 2 -160 5 0 2 26 75 59 162 32 87 67 187 77 222 14 50 19 60 25 45 5
-10 42 -111 84 -223z"/>
<path d="M13014 9103 c3 -10 58 -216 121 -458 64 -242 118 -448 121 -458 5
-15 15 -17 72 -15 l66 3 108 390 c59 215 110 401 114 415 7 27 0 51 155 -512
l82 -298 62 0 62 0 129 473 129 472 -59 3 c-33 2 -62 -1 -65 -7 -4 -6 -49
-186 -101 -400 -52 -215 -95 -389 -97 -388 -1 2 -14 57 -28 122 -14 66 -60
244 -103 395 l-78 275 -78 0 -79 0 -83 -295 c-46 -162 -96 -342 -111 -400 -24
-93 -28 -102 -35 -75 -4 17 -42 181 -84 365 -41 184 -80 352 -85 373 l-10 37
-65 0 c-58 0 -65 -2 -60 -17z"/>
<path d="M14940 8645 l0 -475 355 0 355 0 0 55 0 55 -295 0 -295 0 2 163 3
162 263 3 262 2 0 55 0 55 -265 0 -265 0 0 145 0 145 285 0 285 0 0 55 0 55
-345 0 -345 0 0 -475z"/>
<path d="M19480 8645 l0 -475 60 0 60 0 0 402 c0 221 3 399 6 396 3 -3 65
-183 138 -399 l134 -394 58 -3 59 -3 137 393 137 393 0 -392 1 -393 60 0 60 0
0 475 0 475 -84 0 -83 0 -138 -400 c-76 -220 -139 -400 -141 -400 -1 0 -62
180 -136 400 l-133 400 -97 0 -98 0 0 -475z"/>
<path d="M21180 8645 l0 -475 355 0 355 0 0 55 0 55 -295 0 -295 0 2 163 3
162 263 3 262 2 0 55 0 55 -265 0 -265 0 0 145 0 145 285 0 285 0 0 55 0 55
-345 0 -345 0 0 -475z"/>
<path d="M23010 8645 l0 -475 295 0 295 0 0 55 0 55 -230 0 -230 0 0 420 0
420 -65 0 -65 0 0 -475z"/>
</g>
</svg>
